<svg xmlns="http://www.w3.org/2000/svg" xmlns:xlink="http://www.w3.org/1999/xlink" width="500" zoomAndPan="magnify" viewBox="0 0 375 374.999991" height="500" preserveAspectRatio="xMidYMid meet" version="1.0"><path fill="#000000" d="M 52.425781 375.054688 C 41.839844 375.054688 31.980469 370.863281 24.609375 363.265625 C 17.261719 355.664062 13.382812 345.660156 13.714844 335.097656 L 16.453125 243.636719 C 17.683594 202.839844 26.226562 163.160156 41.867188 125.632812 L 32.929688 104.089844 C 21.621094 76.789062 31.675781 45.714844 56.808594 30.207031 C 69.292969 22.496094 82.667969 16.234375 96.550781 11.539062 C 110.457031 6.875 124.894531 3.773438 139.503906 2.347656 C 155.558594 0.78125 171.589844 0 187.425781 0 C 203.289062 0 219.320312 0.78125 235.070312 2.320312 C 249.925781 3.773438 264.367188 6.875 278.246094 11.539062 C 292.179688 16.234375 305.558594 22.523438 318.015625 30.207031 C 343.148438 45.6875 353.203125 76.761719 341.890625 104.0625 L 332.957031 125.632812 C 348.59375 163.1875 357.140625 202.839844 358.371094 243.636719 L 361.105469 335.125 C 361.441406 345.6875 357.558594 355.691406 350.214844 363.292969 C 342.871094 370.890625 332.984375 375.054688 322.398438 375.054688 Z M 52.425781 375.054688 " fill-opacity="1" fill-rule="nonzero"/><path fill="#c99276" d="M 52.425781 363.878906 C 44.910156 363.878906 37.875 360.917969 32.652344 355.496094 C 27.429688 350.101562 24.664062 342.976562 24.886719 335.460938 L 27.625 244 C 28.882812 203.007812 37.734375 163.246094 53.988281 125.71875 L 43.265625 99.839844 C 34.074219 77.625 42.257812 52.367188 62.703125 39.761719 C 74.457031 32.5 87.082031 26.574219 100.152344 22.1875 C 113.25 17.773438 126.878906 14.867188 140.621094 13.523438 L 140.871094 13.496094 C 156.285156 11.933594 171.953125 11.175781 187.425781 11.175781 C 202.898438 11.175781 218.59375 11.933594 234.007812 13.441406 L 234.261719 13.46875 C 248.027344 14.808594 261.628906 17.714844 274.726562 22.132812 C 287.851562 26.546875 300.449219 32.46875 312.207031 39.734375 C 332.648438 52.339844 340.832031 77.597656 331.644531 99.8125 L 320.890625 125.6875 C 337.144531 163.21875 345.996094 203.007812 347.253906 243.972656 L 349.992188 335.460938 C 350.214844 342.976562 347.476562 350.101562 342.226562 355.496094 C 337.003906 360.886719 329.96875 363.878906 322.453125 363.878906 Z M 52.425781 363.878906 " fill-opacity="1" fill-rule="nonzero"/><path fill="#ffe7b3" d="M 341.640625 335.710938 C 341.976562 346.554688 333.289062 355.496094 322.484375 355.496094 L 52.425781 355.496094 C 41.589844 355.496094 32.929688 346.554688 33.265625 335.710938 L 36.003906 244.226562 C 37.230469 203.34375 46.449219 163.105469 63.09375 125.773438 L 51 96.574219 C 43.429688 78.296875 50.246094 57.226562 67.085938 46.832031 C 78.367188 39.875 90.351562 34.257812 102.832031 30.039062 C 115.289062 25.847656 128.246094 23.054688 141.429688 21.769531 L 141.679688 21.738281 C 172.121094 18.777344 202.757812 18.777344 233.199219 21.738281 L 233.449219 21.769531 C 246.632812 23.054688 259.589844 25.847656 272.046875 30.039062 C 284.5 34.257812 296.511719 39.875 307.792969 46.832031 C 324.632812 57.199219 331.449219 78.296875 323.878906 96.574219 L 311.785156 125.773438 C 328.429688 163.105469 337.648438 203.34375 338.875 244.226562 Z M 341.640625 335.710938 " fill-opacity="1" fill-rule="nonzero"/></svg>