<svg xmlns="http://www.w3.org/2000/svg" xmlns:xlink="http://www.w3.org/1999/xlink" width="500" zoomAndPan="magnify" viewBox="0 0 375 374.999991" height="500" preserveAspectRatio="xMidYMid meet" version="1.0"><path fill="#e5914a" d="M 348.796875 240.621094 C 333.144531 263.390625 288.148438 273.742188 264.613281 288.21875 C 249.488281 297.527344 183.640625 331.46875 165.9375 330.015625 C 151.574219 328.835938 143.289062 311.660156 135.175781 299.75 C 118.664062 275.507812 102.34375 250.964844 82.484375 229.375 C 56.769531 201.414062 26.527344 177.273438 12.105469 142.128906 C 34.578125 108.292969 99.257812 77.726562 167.785156 55.855469 C 203.625 44.417969 228.050781 37.445312 265.011719 42.28125 C 285.859375 45.011719 310.277344 54.4375 328.476562 65.890625 C 337.515625 71.574219 366.308594 95.316406 367.371094 105.945312 C 370.855469 140.773438 351.339844 129.8125 350.539062 144.257812 C 348.796875 175.605469 362.726562 236.554688 344.730469 245.84375 " fill-opacity="1" fill-rule="nonzero"/><path fill="#fbfcfe" d="M 20.8125 193.597656 C 19.074219 184.890625 4.546875 171.066406 8.042969 150.0625 C 9.234375 142.910156 22.546875 132.882812 29.523438 130.90625 C 74.226562 118.242188 113.257812 126.484375 152.585938 151.222656 C 161.625 156.910156 187.609375 176.183594 190.320312 189.535156 C 197.28125 223.839844 174.289062 213.40625 173.484375 227.847656 C 171.746094 259.195312 185.675781 320.148438 167.679688 329.4375 C 152.007812 337.523438 118.25 319.640625 84.089844 308.539062 C 70.949219 304.269531 38.453125 297.976562 27.976562 289.832031 C 16.417969 280.847656 24.464844 211.84375 20.816406 193.597656 Z M 20.8125 193.597656 " fill-opacity="1" fill-rule="nonzero"/><path fill="#c4691c" d="M 152.640625 151.1875 C 113.316406 126.484375 74.304688 118.246094 29.527344 130.910156 C 24.894531 132.246094 12.128906 142.128906 12.128906 142.128906 C 34.570312 108.261719 99.316406 77.691406 167.875 55.867188 C 203.699219 44.441406 228.09375 37.441406 265.050781 42.28125 C 285.945312 45.058594 310.34375 54.425781 328.5625 65.851562 C 337.519531 71.617188 366.339844 95.292969 367.371094 106 C 369.839844 130.703125 360.78125 132.351562 355.015625 136.367188 L 354.914062 136.160156 C 351.003906 137.1875 218.210938 201.730469 188.050781 213.363281 C 191.242188 209.453125 192.992188 202.863281 190.316406 189.585938 C 187.640625 176.203125 161.699219 156.953125 152.640625 151.1875 Z M 152.640625 151.1875 " fill-opacity="1" fill-rule="nonzero"/><path fill="#000000" d="M 372.492188 105.425781 C 371.078125 91.253906 338.164062 65.898438 331.21875 61.539062 C 311.691406 49.242188 286.578125 39.914062 265.679688 37.171875 C 228.476562 32.34375 203.277344 39.128906 166.226562 50.941406 C 118.953125 66.03125 35.519531 97.574219 7.820312 139.285156 C 7.480469 139.796875 3.429688 146.464844 2.972656 149.214844 C 0.265625 165.449219 6.992188 177.5625 11.90625 186.410156 C 13.695312 189.636719 15.386719 192.683594 15.773438 194.601562 C 17.003906 200.765625 16.761719 214.347656 16.507812 228.730469 C 15.867188 264.761719 16.109375 287.117188 24.816406 293.882812 C 33.164062 300.378906 51.621094 305.171875 67.902344 309.40625 C 73.675781 310.902344 78.851562 312.238281 82.496094 313.425781 C 91.507812 316.351562 100.492188 319.757812 109.109375 323.027344 C 127.960938 330.171875 144.898438 336.597656 157.921875 336.597656 C 161.105469 336.597656 163.960938 336.039062 166.648438 335.1875 C 166.765625 335.1875 166.867188 335.199219 166.988281 335.199219 C 189.476562 335.199219 256.730469 299.109375 267.320312 292.597656 C 275.144531 287.78125 285.636719 283.367188 296.738281 278.683594 C 315.695312 270.703125 335.132812 262.457031 347.339844 250.222656 C 362.25 242.140625 359.859375 212.375 357.289062 180.8125 C 356.183594 167.191406 355.132812 154.332031 355.675781 144.53125 C 355.828125 141.859375 356.617188 141.285156 359.945312 139.285156 C 367.867188 134.519531 374.789062 128.347656 372.496094 105.425781 Z M 169.980469 265.234375 C 171.863281 288.402344 174.449219 320.140625 165.320312 324.855469 C 155.875 329.71875 134.921875 321.800781 112.761719 313.40625 C 103.972656 310.066406 94.886719 306.628906 85.679688 303.632812 C 81.878906 302.398438 76.5 301 70.488281 299.441406 C 56.695312 295.851562 37.808594 290.945312 31.132812 285.761719 C 25.863281 281.660156 26.472656 247.347656 26.800781 228.914062 C 27.078125 213.3125 27.316406 199.839844 25.863281 192.59375 C 25.167969 189.085938 23.191406 185.535156 20.902344 181.414062 C 16.496094 173.472656 11.007812 163.601562 13.121094 150.90625 C 13.8125 146.78125 24.628906 137.644531 30.925781 135.855469 C 44.222656 132.085938 57.152344 130.1875 69.925781 130.1875 C 96.726562 130.1875 122.796875 138.550781 149.847656 155.570312 C 161.171875 162.695312 183.191406 180.277344 185.273438 190.550781 C 188.859375 208.214844 184.097656 210.839844 178.585938 213.875 C 174.460938 216.144531 168.808594 219.261719 168.351562 227.566406 C 167.765625 238.050781 168.839844 251.257812 169.980469 265.230469 Z M 346.261719 236.191406 C 345.609375 236.5625 342.671875 240.238281 341.5625 241.453125 C 330.953125 253.113281 310.761719 261.609375 292.742188 269.203125 C 281.265625 274.039062 270.425781 278.601562 261.921875 283.832031 C 247.660156 292.601562 203.027344 315.042969 178.964844 322.46875 C 183.773438 309.035156 182.097656 287.246094 180.238281 264.398438 C 179.132812 250.789062 178.082031 237.921875 178.625 228.128906 C 178.761719 225.757812 179.613281 225.0625 183.554688 222.890625 C 186.054688 221.511719 188.457031 219.914062 190.554688 217.855469 C 210.941406 209.886719 273.339844 180.257812 314.824219 160.566406 C 326.410156 155.066406 337.507812 149.792969 345.363281 146.097656 C 345.007812 156.238281 345.960938 168.554688 347.03125 181.644531 C 348.570312 200.59375 350.570312 225.246094 346.261719 236.191406 Z M 354.636719 130.46875 C 354.296875 130.671875 353.917969 130.941406 353.558594 131.160156 L 353.554688 131.160156 C 351.875 131.613281 343.878906 135.375 310.402344 151.265625 C 274.378906 168.378906 222.535156 192.996094 196.523438 204.222656 C 196.925781 200.027344 196.675781 194.964844 195.367188 188.5 C 191.640625 170.15625 155.6875 147.085938 155.328125 146.863281 C 115.429688 121.757812 77.398438 114.574219 36.414062 124.027344 C 63.640625 101.929688 110 79.695312 169.351562 60.753906 C 204.917969 49.414062 228.53125 42.667969 264.34375 47.382812 C 283.859375 49.9375 307.382812 58.703125 325.738281 70.253906 C 336.707031 77.136719 361.519531 99.132812 362.25 106.453125 C 364.085938 124.777344 359.496094 127.542969 354.632812 130.46875 Z M 354.636719 130.46875 " fill-opacity="1" fill-rule="nonzero"/></svg>