<svg xmlns="http://www.w3.org/2000/svg" xmlns:xlink="http://www.w3.org/1999/xlink" width="1280" zoomAndPan="magnify" viewBox="0 0 960 599.999999" height="800" preserveAspectRatio="xMidYMid meet" version="1.0"><defs><clipPath id="5d08c69f96"><path d="M 257 60 L 703 60 L 703 540 L 257 540 Z M 257 60 " clip-rule="nonzero"/></clipPath><clipPath id="e8d26df766"><path d="M 398 134.804688 L 437 134.804688 L 437 181 L 398 181 Z M 398 134.804688 " clip-rule="nonzero"/></clipPath><clipPath id="67f933983f"><path d="M 523 134.804688 L 562 134.804688 L 562 181 L 523 181 Z M 523 134.804688 " clip-rule="nonzero"/></clipPath><clipPath id="0bb76bda8b"><path d="M 384 185 L 413 185 L 413 200.804688 L 384 200.804688 Z M 384 185 " clip-rule="nonzero"/></clipPath><clipPath id="570fe3d959"><path d="M 547 185 L 576 185 L 576 200.804688 L 547 200.804688 Z M 547 185 " clip-rule="nonzero"/></clipPath><clipPath id="2109eafa60"><path d="M 612 257 L 710 257 L 710 427 L 612 427 Z M 612 257 " clip-rule="nonzero"/></clipPath><clipPath id="84f6bc8afa"><path d="M 573.382812 312.078125 L 686.03125 257.328125 L 749.632812 388.191406 L 636.980469 442.941406 Z M 573.382812 312.078125 " clip-rule="nonzero"/></clipPath><clipPath id="5fca971eb4"><path d="M 552.199219 268.496094 L 664.851562 213.746094 L 749.761719 388.457031 L 637.109375 443.203125 Z M 552.199219 268.496094 " clip-rule="nonzero"/></clipPath></defs><g clip-path="url(#5d08c69f96)"><path fill="#000000" d="M 307.121094 540.070312 C 293.566406 540.070312 280.945312 534.707031 271.503906 524.976562 C 262.097656 515.25 257.125 502.445312 257.554688 488.925781 L 261.058594 371.855469 C 262.632812 319.636719 273.578125 268.847656 293.605469 220.8125 L 282.160156 193.234375 C 267.675781 158.289062 280.550781 118.515625 312.738281 98.664062 C 328.722656 88.792969 345.851562 80.78125 363.625 74.773438 C 381.433594 68.800781 399.925781 64.828125 418.628906 63.003906 C 439.191406 61 459.71875 60 479.996094 60 C 500.308594 60 520.835938 61 541.003906 62.96875 C 560.03125 64.828125 578.519531 68.796875 596.292969 74.773438 C 614.136719 80.78125 631.269531 88.828125 647.21875 98.664062 C 679.402344 118.480469 692.277344 158.253906 677.792969 193.199219 L 666.351562 220.8125 C 686.375 268.882812 697.320312 319.636719 698.894531 371.855469 L 702.398438 488.960938 C 702.828125 502.480469 697.855469 515.285156 688.449219 525.011719 C 679.046875 534.742188 666.386719 540.070312 652.832031 540.070312 Z M 307.121094 540.070312 " fill-opacity="1" fill-rule="nonzero"/></g><path fill="#c99276" d="M 307.121094 525.765625 C 297.5 525.765625 288.488281 521.972656 281.800781 515.035156 C 275.113281 508.132812 271.574219 499.011719 271.859375 489.390625 L 275.367188 372.320312 C 276.972656 319.851562 288.3125 268.953125 309.125 220.917969 L 295.390625 187.796875 C 283.625 159.363281 294.105469 127.027344 320.28125 110.898438 C 335.339844 101.597656 351.503906 94.015625 368.238281 88.398438 C 385.011719 82.75 402.464844 79.027344 420.058594 77.3125 L 420.378906 77.277344 C 440.121094 75.273438 460.183594 74.308594 479.996094 74.308594 C 499.808594 74.308594 519.90625 75.273438 539.644531 77.203125 L 539.96875 77.238281 C 557.597656 78.957031 575.015625 82.675781 591.785156 88.328125 C 608.59375 93.980469 624.722656 101.5625 639.777344 110.863281 C 665.957031 126.992188 676.433594 159.328125 664.667969 187.761719 L 650.902344 220.882812 C 671.714844 268.917969 683.050781 319.851562 684.660156 372.285156 L 688.164062 489.390625 C 688.449219 499.011719 684.945312 508.132812 678.222656 515.035156 C 671.535156 521.9375 662.523438 525.765625 652.902344 525.765625 Z M 307.121094 525.765625 " fill-opacity="1" fill-rule="nonzero"/><path fill="#ffe7b3" d="M 677.472656 489.710938 C 677.902344 503.589844 666.777344 515.035156 652.9375 515.035156 L 307.121094 515.035156 C 293.246094 515.035156 282.160156 503.589844 282.589844 489.710938 L 286.09375 372.609375 C 287.667969 320.28125 299.46875 268.773438 320.78125 220.988281 L 305.296875 183.613281 C 295.605469 160.21875 304.332031 133.25 325.898438 119.945312 C 340.34375 111.039062 355.6875 103.851562 371.671875 98.449219 C 387.621094 93.085938 404.214844 89.507812 421.09375 87.863281 L 421.417969 87.828125 C 460.398438 84.035156 499.628906 84.035156 538.609375 87.828125 L 538.929688 87.863281 C 555.808594 89.507812 572.402344 93.085938 588.351562 98.449219 C 604.304688 103.851562 619.679688 111.039062 634.128906 119.945312 C 655.691406 133.214844 664.417969 160.21875 654.726562 183.613281 L 639.242188 220.988281 C 660.558594 268.773438 672.359375 320.28125 673.929688 372.609375 Z M 677.472656 489.710938 " fill-opacity="1" fill-rule="nonzero"/><g clip-path="url(#e8d26df766)"><path fill="#0a0a0a" d="M 436.851562 156.972656 C 436.851562 169.214844 429.511719 180.636719 417.226562 180.636719 C 404.941406 180.636719 398.046875 169.214844 398.046875 156.972656 C 398.046875 144.730469 404.941406 134.808594 417.226562 134.808594 C 429.511719 134.808594 436.847656 144.734375 436.847656 156.972656 Z M 436.851562 156.972656 " fill-opacity="1" fill-rule="nonzero"/></g><path fill="#ffffff" d="M 414.6875 150.878906 C 413.261719 154.011719 409.992188 155.59375 407.382812 154.417969 C 404.773438 153.238281 403.816406 149.746094 405.242188 146.613281 C 406.667969 143.480469 409.9375 141.898438 412.542969 143.074219 C 415.152344 144.253906 416.113281 147.746094 414.6875 150.878906 Z M 414.6875 150.878906 " fill-opacity="1" fill-rule="nonzero"/><g clip-path="url(#67f933983f)"><path fill="#0a0a0a" d="M 561.949219 156.972656 C 561.949219 169.214844 554.613281 180.636719 542.328125 180.636719 C 530.042969 180.636719 523.148438 169.214844 523.148438 156.972656 C 523.148438 144.734375 530.042969 134.808594 542.324219 134.808594 C 554.609375 134.808594 561.949219 144.734375 561.949219 156.972656 Z M 561.949219 156.972656 " fill-opacity="1" fill-rule="nonzero"/></g><path fill="#ffffff" d="M 539.785156 150.878906 C 538.363281 154.011719 535.09375 155.59375 532.484375 154.417969 C 529.875 153.238281 528.917969 149.746094 530.339844 146.613281 C 531.765625 143.480469 535.035156 141.898438 537.644531 143.074219 C 540.253906 144.253906 541.210938 147.746094 539.785156 150.878906 Z M 539.785156 150.878906 " fill-opacity="1" fill-rule="nonzero"/><g clip-path="url(#0bb76bda8b)"><path fill="#ffb8b8" d="M 412.097656 192.972656 C 412.097656 193.484375 412.007812 193.996094 411.828125 194.5 C 411.648438 195.003906 411.378906 195.492188 411.027344 195.96875 C 410.675781 196.441406 410.242188 196.894531 409.730469 197.324219 C 409.214844 197.75 408.632812 198.144531 407.980469 198.507812 C 407.328125 198.871094 406.621094 199.199219 405.851562 199.484375 C 405.085938 199.769531 404.277344 200.011719 403.425781 200.207031 C 402.570312 200.402344 401.695312 200.550781 400.789062 200.652344 C 399.882812 200.753906 398.972656 200.804688 398.046875 200.804688 C 397.125 200.804688 396.210938 200.753906 395.308594 200.652344 C 394.402344 200.550781 393.523438 200.402344 392.671875 200.207031 C 391.820312 200.011719 391.011719 199.769531 390.242188 199.484375 C 389.476562 199.199219 388.765625 198.871094 388.113281 198.507812 C 387.460938 198.144531 386.878906 197.75 386.367188 197.324219 C 385.855469 196.894531 385.421875 196.441406 385.070312 195.96875 C 384.714844 195.492188 384.449219 195.003906 384.269531 194.5 C 384.089844 193.996094 384 193.484375 384 192.972656 C 384 192.457031 384.089844 191.945312 384.269531 191.441406 C 384.449219 190.9375 384.714844 190.449219 385.070312 189.972656 C 385.421875 189.5 385.855469 189.046875 386.367188 188.621094 C 386.878906 188.191406 387.460938 187.796875 388.113281 187.433594 C 388.765625 187.070312 389.476562 186.746094 390.242188 186.457031 C 391.011719 186.171875 391.820312 185.929688 392.671875 185.734375 C 393.523438 185.539062 394.402344 185.390625 395.308594 185.289062 C 396.210938 185.1875 397.125 185.136719 398.046875 185.136719 C 398.972656 185.136719 399.882812 185.1875 400.789062 185.289062 C 401.695312 185.390625 402.570312 185.539062 403.425781 185.734375 C 404.277344 185.929688 405.085938 186.171875 405.851562 186.457031 C 406.621094 186.746094 407.328125 187.070312 407.980469 187.433594 C 408.632812 187.796875 409.214844 188.191406 409.730469 188.621094 C 410.242188 189.046875 410.675781 189.5 411.027344 189.972656 C 411.378906 190.449219 411.648438 190.9375 411.828125 191.441406 C 412.007812 191.945312 412.097656 192.457031 412.097656 192.972656 Z M 412.097656 192.972656 " fill-opacity="1" fill-rule="nonzero"/></g><g clip-path="url(#570fe3d959)"><path fill="#ffb8b8" d="M 576 192.972656 C 576 193.484375 575.910156 193.996094 575.730469 194.5 C 575.546875 195.003906 575.28125 195.492188 574.929688 195.96875 C 574.578125 196.441406 574.144531 196.894531 573.632812 197.324219 C 573.117188 197.75 572.535156 198.144531 571.882812 198.507812 C 571.230469 198.871094 570.523438 199.199219 569.753906 199.484375 C 568.988281 199.769531 568.179688 200.011719 567.328125 200.207031 C 566.472656 200.402344 565.597656 200.550781 564.691406 200.652344 C 563.785156 200.753906 562.871094 200.804688 561.949219 200.804688 C 561.027344 200.804688 560.113281 200.753906 559.210938 200.652344 C 558.304688 200.550781 557.425781 200.402344 556.574219 200.207031 C 555.722656 200.011719 554.914062 199.769531 554.144531 199.484375 C 553.378906 199.199219 552.667969 198.871094 552.015625 198.507812 C 551.363281 198.144531 550.78125 197.75 550.269531 197.324219 C 549.757812 196.894531 549.324219 196.441406 548.972656 195.96875 C 548.617188 195.492188 548.351562 195.003906 548.171875 194.5 C 547.992188 193.996094 547.902344 193.484375 547.902344 192.972656 C 547.902344 192.457031 547.992188 191.945312 548.171875 191.441406 C 548.351562 190.9375 548.617188 190.449219 548.972656 189.972656 C 549.324219 189.5 549.757812 189.046875 550.269531 188.621094 C 550.78125 188.191406 551.363281 187.796875 552.015625 187.433594 C 552.667969 187.070312 553.378906 186.746094 554.144531 186.457031 C 554.914062 186.171875 555.722656 185.929688 556.574219 185.734375 C 557.425781 185.539062 558.304688 185.390625 559.210938 185.289062 C 560.113281 185.1875 561.027344 185.136719 561.949219 185.136719 C 562.871094 185.136719 563.785156 185.1875 564.691406 185.289062 C 565.597656 185.390625 566.472656 185.539062 567.328125 185.734375 C 568.179688 185.929688 568.988281 186.171875 569.753906 186.457031 C 570.523438 186.746094 571.230469 187.070312 571.882812 187.433594 C 572.535156 187.796875 573.117188 188.191406 573.632812 188.621094 C 574.144531 189.046875 574.578125 189.5 574.929688 189.972656 C 575.28125 190.449219 575.546875 190.9375 575.730469 191.441406 C 575.910156 191.945312 576 192.457031 576 192.972656 Z M 576 192.972656 " fill-opacity="1" fill-rule="nonzero"/></g><path fill="#0a0a0a" d="M 480 189.234375 C 478.378906 189.234375 477.0625 187.921875 477.0625 186.304688 C 477.0625 184.6875 478.378906 183.375 480 183.375 C 484.140625 183.375 486.753906 181.515625 488.222656 177.519531 C 488.78125 176.003906 490.46875 175.21875 491.992188 175.777344 C 493.519531 176.335938 494.300781 178.015625 493.738281 179.535156 C 491.441406 185.789062 486.558594 189.234375 480 189.234375 Z M 480 189.234375 " fill-opacity="1" fill-rule="nonzero"/><path fill="#0a0a0a" d="M 480 189.234375 C 473.441406 189.234375 468.558594 185.789062 466.261719 179.53125 C 465.703125 178.015625 466.480469 176.332031 468.007812 175.777344 C 469.523438 175.21875 471.21875 176.003906 471.777344 177.519531 C 473.246094 181.515625 475.859375 183.375 480 183.375 C 481.621094 183.375 482.9375 184.6875 482.9375 186.304688 C 482.9375 187.917969 481.621094 189.230469 480 189.230469 Z M 480 189.234375 " fill-opacity="1" fill-rule="nonzero"/><g clip-path="url(#2109eafa60)"><g clip-path="url(#84f6bc8afa)"><g clip-path="url(#5fca971eb4)"><path fill="#000000" d="M 620.867188 247.238281 C 620.675781 247.332031 620.519531 247.40625 620.328125 247.5 C 620.253906 247.535156 620.136719 247.589844 620.0625 247.628906 C 619.984375 247.667969 619.90625 247.703125 619.792969 247.757812 C 619.636719 247.832031 619.503906 247.945312 619.332031 247.984375 C 619.179688 248.058594 619.0625 248.113281 618.890625 248.148438 C 619.566406 247.585938 620.179688 247.285156 620.867188 247.238281 Z M 620.867188 247.238281 Z M 685.246094 358.4375 C 685.285156 358.417969 685.265625 358.378906 685.304688 358.359375 C 685.265625 358.378906 685.246094 358.4375 685.246094 358.4375 Z M 700.09375 286.542969 C 697.960938 282.839844 695.636719 279.320312 693.550781 276.496094 C 693.023438 275.800781 692.535156 275.089844 692.046875 274.476562 C 691.558594 273.859375 691.125 273.261719 690.730469 272.742188 C 689.886719 271.683594 689.226562 270.820312 688.738281 270.203125 C 688.132812 269.644531 687.492188 269.007812 686.871094 268.3125 C 686.570312 267.984375 686.210938 267.636719 685.910156 267.308594 C 685.742188 267.15625 685.609375 266.984375 685.421875 266.789062 L 684.929688 266.269531 C 683.648438 264.902344 682.367188 263.53125 681.101562 262.488281 L 681.421875 262.664062 C 681.082031 262.355469 680.613281 261.871094 679.933594 261.253906 C 679.59375 260.945312 679.234375 260.597656 678.875 260.25 C 678.5 259.863281 678.082031 259.496094 677.628906 259.054688 C 675.835938 257.410156 673.644531 255.441406 671.300781 253.546875 C 668.976562 251.6875 666.574219 249.867188 664.472656 248.472656 C 664.207031 248.316406 663.960938 248.105469 663.699219 247.949219 C 663.433594 247.792969 663.207031 247.617188 662.941406 247.464844 C 662.464844 247.171875 662.03125 246.863281 661.632812 246.628906 C 661.234375 246.394531 660.835938 246.160156 660.554688 245.96875 C 660.230469 245.792969 659.949219 245.597656 659.699219 245.480469 L 660.15625 245.828125 C 658.523438 245.011719 657.898438 244.601562 657.351562 244.15625 C 657.066406 243.964844 656.820312 243.75 656.5 243.480469 C 656.347656 243.363281 656.140625 243.226562 655.914062 243.054688 C 655.78125 242.976562 655.6875 242.878906 655.554688 242.800781 C 655.421875 242.722656 655.289062 242.648438 655.136719 242.53125 C 655.191406 242.835938 654.488281 242.65625 653.6875 242.378906 C 653.289062 242.242188 652.816406 242.046875 652.378906 241.925781 C 652.148438 241.847656 651.960938 241.75 651.789062 241.691406 C 651.617188 241.632812 651.429688 241.535156 651.316406 241.496094 L 651.375 241.421875 C 650.957031 241.242188 650.421875 241.027344 649.796875 240.8125 C 649.453125 240.691406 649.113281 240.574219 648.769531 240.457031 C 648.601562 240.398438 648.429688 240.335938 648.238281 240.242188 C 648.066406 240.179688 647.859375 240.140625 647.667969 240.042969 C 647.269531 239.90625 646.890625 239.804688 646.527344 239.648438 C 646.128906 239.511719 645.75 239.410156 645.351562 239.273438 C 644.570312 239.035156 643.792969 238.796875 643.109375 238.5625 L 643.300781 238.371094 C 643.148438 238.351562 642.976562 238.292969 642.824219 238.273438 C 642.65625 238.210938 642.503906 238.191406 642.332031 238.132812 C 641.988281 238.015625 641.609375 237.914062 641.226562 237.816406 C 641.058594 237.757812 640.847656 237.714844 640.621094 237.636719 C 640.410156 237.597656 640.222656 237.5 640.011719 237.457031 C 639.574219 237.339844 639.175781 237.199219 638.757812 237.121094 C 637.0625 236.664062 635.464844 236.300781 634.535156 236.136719 C 633.488281 235.933594 632.289062 235.710938 630.972656 235.542969 C 629.660156 235.378906 628.230469 235.265625 626.703125 235.25 C 625.195312 235.269531 623.59375 235.386719 621.96875 235.75 C 620.382812 236.09375 618.753906 236.648438 617.296875 237.355469 C 615.917969 237.742188 614.519531 238.277344 613.15625 238.988281 L 612.675781 239.457031 C 612.675781 239.457031 612.695312 239.496094 612.691406 239.59375 C 612.691406 239.6875 612.691406 239.78125 612.707031 239.917969 C 612.707031 240.203125 612.777344 240.640625 612.867188 241.121094 C 612.921875 241.332031 612.957031 241.597656 613.050781 241.886719 C 613.121094 242.132812 613.214844 242.421875 613.304688 242.707031 C 613.527344 243.265625 613.789062 243.800781 614.128906 244.300781 C 614.464844 244.800781 614.878906 245.261719 615.3125 245.667969 C 615.542969 245.84375 615.785156 246.054688 615.996094 246.191406 C 616.128906 246.269531 616.261719 246.347656 616.375 246.386719 C 616.507812 246.464844 616.621094 246.503906 616.753906 246.582031 C 617.246094 246.816406 617.796875 246.972656 618.3125 247.054688 C 618.464844 247.078125 618.558594 247.078125 618.710938 247.097656 C 618.863281 247.121094 619 247.101562 619.132812 247.085938 C 619.398438 247.050781 619.6875 247.050781 619.992188 247 L 620.066406 247.246094 C 620.160156 247.152344 620.316406 247.078125 620.429688 247.023438 C 620.527344 246.929688 620.679688 246.855469 620.792969 246.796875 C 621.023438 246.6875 621.234375 246.632812 621.410156 246.5 C 621.601562 246.40625 621.714844 246.351562 621.832031 246.292969 C 621.945312 246.238281 622.023438 246.203125 622.058594 246.183594 C 622.097656 246.164062 622.15625 246.183594 622.136719 246.242188 L 621.964844 246.277344 L 621.8125 246.351562 L 621.445312 246.480469 L 621.140625 246.628906 C 621.101562 246.648438 621.023438 246.6875 620.988281 246.703125 L 620.832031 246.777344 C 621.0625 246.667969 621.234375 246.632812 621.273438 246.613281 C 621.367188 246.613281 621.367188 246.613281 621.3125 246.6875 C 621.292969 246.746094 621.214844 246.785156 621.117188 246.878906 C 621.058594 246.953125 620.964844 247.046875 620.90625 247.125 C 620.980469 247.085938 621.097656 247.03125 621.175781 246.992188 C 621.25 246.957031 621.367188 246.898438 621.460938 246.902344 C 621.5 246.882812 621.539062 246.863281 621.578125 246.84375 C 621.613281 246.828125 621.652344 246.808594 621.710938 246.828125 C 621.785156 246.789062 621.882812 246.792969 621.957031 246.753906 C 622.113281 246.582031 621.789062 246.695312 621.617188 246.730469 C 621.730469 246.675781 621.867188 246.5625 622.019531 246.488281 C 622.171875 246.414062 622.308594 246.300781 622.5 246.207031 C 622.652344 246.132812 622.84375 246.039062 623.015625 246.003906 C 623.226562 245.949219 623.398438 245.910156 623.570312 245.875 C 623.875 245.820312 624.011719 245.804688 624.125 245.84375 C 624.21875 245.84375 624.257812 245.921875 624.277344 245.960938 C 624.292969 245.996094 624.371094 246.054688 624.464844 246.058594 C 624.578125 246.097656 624.75 246.058594 625.113281 246.027344 C 626.949219 245.800781 628.988281 245.898438 631.042969 246.226562 C 633.101562 246.554688 635.191406 247.054688 637.28125 247.746094 L 637.683594 247.882812 C 637.796875 247.925781 637.964844 247.984375 638.082031 248.023438 L 638.878906 248.296875 L 639.277344 248.4375 L 639.675781 248.574219 L 640.492188 248.890625 C 641.554688 249.320312 642.660156 249.734375 643.703125 250.222656 C 645.847656 251.125 647.953125 252.140625 650.058594 253.25 C 650.207031 253.460938 650 253.324219 649.714844 253.226562 C 650.019531 253.363281 650.339844 253.539062 650.664062 253.714844 C 650.984375 253.890625 651.289062 254.027344 651.59375 254.164062 C 651.914062 254.339844 652.179688 254.496094 652.484375 254.632812 C 652.785156 254.769531 653.070312 254.960938 653.335938 255.117188 C 653.921875 255.449219 654.472656 255.796875 655.042969 256.089844 C 655.308594 256.246094 655.589844 256.441406 655.894531 256.578125 C 656.160156 256.734375 656.445312 256.925781 656.746094 257.0625 C 657.011719 257.316406 657.179688 257.46875 657.3125 257.640625 C 657.425781 257.777344 657.480469 257.890625 657.539062 258.007812 C 657.519531 257.96875 657.691406 258.027344 657.972656 258.222656 C 658.296875 258.398438 658.769531 258.6875 659.300781 259.09375 C 660.417969 259.832031 661.929688 260.898438 663.386719 262.039062 C 663.765625 262.332031 664.144531 262.621094 664.464844 262.890625 C 664.84375 263.183594 665.164062 263.453125 665.542969 263.742188 C 666.203125 264.324219 666.882812 264.84375 667.394531 265.308594 C 667.65625 265.558594 667.902344 265.773438 668.128906 265.945312 C 668.355469 266.121094 668.546875 266.3125 668.714844 266.46875 C 669.035156 266.738281 669.226562 266.933594 669.242188 266.96875 L 669.664062 266.765625 C 671.800781 268.714844 669.941406 267.722656 671.925781 269.460938 C 672.230469 269.503906 672.550781 269.773438 672.929688 270.0625 C 673.097656 270.21875 673.285156 270.410156 673.476562 270.601562 C 673.664062 270.796875 673.851562 270.988281 674.003906 271.199219 C 674.191406 271.394531 674.339844 271.605469 674.53125 271.796875 C 674.71875 271.992188 674.867188 272.203125 675.039062 272.355469 C 675.339844 272.683594 675.621094 272.972656 675.851562 273.050781 C 675.8125 273.070312 676.660156 274.035156 676.46875 274.128906 C 677.019531 274.191406 677.449219 275.074219 678.054688 275.632812 C 678.320312 275.789062 677.980469 275.382812 677.925781 275.175781 C 678.378906 275.617188 678.832031 276.0625 679.285156 276.503906 C 679.488281 276.832031 679.582031 277.023438 679.542969 277.136719 C 679.523438 277.195312 679.351562 277.136719 679.109375 276.828125 C 679.316406 277.058594 679.558594 277.367188 679.824219 277.714844 C 680.085938 278.058594 680.425781 278.464844 680.78125 278.90625 C 681.140625 279.347656 681.515625 279.832031 681.910156 280.351562 C 682.304688 280.867188 682.777344 281.445312 683.207031 282.042969 C 684.992188 284.445312 687.019531 287.351562 688.855469 290.347656 C 689.734375 291.863281 690.613281 293.378906 691.359375 294.820312 C 691.546875 295.203125 691.714844 295.546875 691.941406 295.914062 C 692.109375 296.257812 692.292969 296.640625 692.460938 296.984375 C 692.796875 297.675781 693.09375 298.386719 693.375 299.054688 C 694.507812 301.683594 695.1875 303.863281 695.574219 305.050781 C 695.597656 304.707031 695.488281 304.191406 695.34375 303.695312 C 695.324219 303.5625 695.269531 303.445312 695.25 303.3125 C 695.234375 303.179688 695.179688 303.0625 695.160156 302.929688 C 695.144531 302.699219 695.128906 302.472656 695.1875 302.300781 C 695.335938 302.605469 695.464844 302.875 695.578125 303.105469 C 695.652344 303.355469 695.707031 303.566406 695.742188 303.738281 C 695.832031 304.121094 695.925781 304.40625 696.09375 304.65625 C 695.980469 304.808594 695.976562 305.09375 696.03125 305.398438 C 696.042969 305.722656 696.117188 306.066406 696.207031 306.449219 C 696.246094 306.621094 696.300781 306.832031 696.335938 307.003906 C 696.371094 307.175781 696.386719 307.40625 696.425781 307.578125 C 696.457031 307.941406 696.433594 308.285156 696.335938 308.570312 L 696.753906 308.839844 C 696.714844 309.050781 696.691406 309.296875 696.652344 309.507812 C 696.722656 309.851562 696.816406 310.140625 696.867188 310.445312 C 696.902344 310.710938 696.976562 310.960938 697.03125 311.171875 C 697.085938 311.382812 697.125 311.554688 697.160156 311.726562 C 697.195312 311.898438 697.214844 312.03125 697.210938 312.128906 C 697.300781 312.605469 697.320312 312.738281 697.320312 312.832031 C 697.335938 312.96875 697.335938 313.0625 697.332031 313.445312 C 697.328125 313.636719 697.363281 313.902344 697.359375 314.285156 C 697.355469 314.664062 697.386719 315.125 697.417969 315.773438 C 697.453125 316.136719 697.46875 316.460938 697.484375 316.785156 C 697.5 317.109375 697.515625 317.433594 697.550781 317.699219 C 697.601562 318.292969 697.652344 318.789062 697.683594 319.246094 C 697.75 320.164062 697.78125 320.90625 697.640625 321.6875 C 697.699219 321.421875 697.914062 320.984375 697.925781 321.691406 C 697.773438 321.765625 697.785156 322.28125 697.761719 322.8125 C 697.757812 323.101562 697.753906 323.386719 697.730469 323.632812 C 697.710938 323.882812 697.652344 324.054688 697.554688 324.148438 C 697.546875 324.910156 697.078125 327.367188 697.601562 326.589844 C 697.46875 326.796875 697.289062 327.40625 697.128906 327.863281 C 696.953125 328.28125 696.875 328.507812 696.921875 327.820312 C 696.820312 328.203125 696.761719 328.5625 696.679688 328.886719 C 696.601562 329.210938 696.519531 329.535156 696.515625 329.820312 C 696.617188 329.535156 696.734375 329.191406 696.832031 328.90625 C 696.792969 329.210938 696.710938 329.535156 696.652344 329.800781 C 696.589844 330.066406 696.53125 330.335938 696.46875 330.601562 C 696.332031 331.09375 696.210938 331.53125 696.09375 331.96875 C 695.972656 332.40625 695.875 332.789062 695.773438 333.167969 C 695.675781 333.546875 695.632812 333.949219 695.609375 334.386719 L 696.039062 333.515625 C 695.9375 333.894531 695.820312 334.238281 695.738281 334.558594 C 695.621094 334.902344 695.523438 335.1875 695.425781 335.472656 C 695.324219 335.757812 695.207031 336.003906 695.070312 336.210938 C 694.9375 336.421875 694.820312 336.570312 694.683594 336.683594 C 694.804688 336.152344 694.945312 335.65625 695.066406 335.125 C 694.707031 336.339844 694.375 337.308594 694.078125 338.261719 C 693.917969 338.714844 693.761719 339.171875 693.660156 339.648438 C 693.503906 340.105469 693.363281 340.597656 693.242188 341.132812 L 693.519531 340.429688 C 693.457031 340.601562 693.417969 340.808594 693.359375 341.074219 C 693.296875 341.34375 693.199219 341.625 693.101562 341.910156 C 692.882812 342.539062 692.628906 343.28125 692.332031 344.136719 C 691.722656 345.804688 690.839844 347.800781 689.941406 349.753906 C 689.824219 350 689.707031 350.246094 689.589844 350.492188 C 689.472656 350.742188 689.355469 350.988281 689.238281 351.234375 C 689.121094 351.480469 689.003906 351.726562 688.886719 351.972656 C 688.769531 352.21875 688.632812 352.429688 688.515625 352.675781 C 688.261719 353.128906 688.066406 353.605469 687.851562 354.039062 C 687.636719 354.476562 687.40625 354.875 687.191406 355.3125 C 686.996094 355.691406 686.800781 356.070312 686.605469 356.449219 C 686.429688 356.773438 686.253906 357.09375 686.078125 357.417969 C 685.785156 357.984375 685.550781 358.476562 685.414062 358.78125 C 685.703125 358.5 685.992188 358.214844 686.339844 357.953125 L 685.832031 358.957031 L 685.324219 359.964844 C 685.441406 359.71875 685.109375 358.742188 685.207031 358.457031 C 684.878906 358.949219 684.394531 359.703125 683.792969 360.613281 C 683.152344 361.542969 682.375 362.675781 681.464844 363.925781 C 679.644531 366.421875 677.34375 369.296875 674.890625 372.054688 C 672.4375 374.808594 669.871094 377.433594 667.632812 379.46875 C 666.515625 380.484375 665.496094 381.40625 664.648438 382.105469 C 664.207031 382.460938 663.839844 382.78125 663.492188 383.042969 C 663.148438 383.308594 662.878906 383.535156 662.664062 383.683594 C 661.167969 384.695312 662.097656 383.488281 662.078125 383.449219 C 661.289062 384.164062 661.152344 384.371094 661.054688 384.5625 C 660.9375 384.714844 660.859375 384.847656 660.148438 385.429688 C 659.707031 385.691406 660.074219 385.179688 660.25 384.953125 C 659.941406 385.199219 659.632812 385.441406 659.382812 385.613281 C 659.132812 385.78125 658.996094 385.894531 658.996094 385.988281 C 659.4375 385.726562 659.628906 385.730469 659.761719 385.808594 C 659.894531 385.882812 660.007812 386.019531 660.273438 385.984375 C 659.96875 386.230469 659.660156 386.472656 659.332031 386.679688 L 658.390625 387.375 L 658.316406 387.125 C 658.105469 387.277344 657.949219 387.636719 657.582031 388.050781 C 657.40625 388.277344 657.15625 388.542969 656.867188 388.824219 C 656.578125 389.109375 656.15625 389.410156 655.675781 389.691406 C 652.371094 391.867188 648.757812 394.191406 645.246094 396.039062 C 645.226562 395.90625 645.921875 395.378906 646.59375 394.910156 C 646.132812 395.132812 645.460938 395.601562 644.964844 395.75 C 645.9375 395.511719 643.558594 396.667969 644.289062 396.410156 C 643.710938 396.878906 643.074219 397.332031 642.367188 397.722656 C 641.65625 398.117188 640.945312 398.507812 640.199219 398.824219 C 639.621094 399.101562 638.992188 399.363281 638.453125 399.625 C 638.550781 399.433594 638.628906 399.207031 638.726562 399.015625 C 638.984375 398.371094 639.238281 397.726562 639.433594 397.15625 C 639.535156 396.871094 639.613281 396.644531 639.691406 396.414062 C 639.730469 396.207031 639.789062 396.035156 639.8125 395.882812 C 639.507812 395.9375 639.578125 396.28125 639.195312 396.277344 C 639.046875 395.96875 639.390625 395.894531 639.183594 395.761719 C 639.792969 395.84375 639.496094 395.230469 640.144531 395.199219 L 639.820312 395.023438 L 640.070312 394.949219 C 640.058594 394.339844 640.058594 394.246094 640.078125 394.1875 C 640.097656 394.128906 640.195312 394.132812 640.332031 393.636719 C 640.433594 393.066406 640.039062 392.640625 640.289062 392.378906 C 640.25 392.394531 640.042969 392.453125 640.023438 392.316406 C 640.328125 392.359375 639.894531 391.859375 640.238281 391.882812 C 640.257812 391.730469 640.398438 391.234375 639.957031 391.304688 C 640.054688 391.308594 640.1875 391.195312 640.246094 391.117188 C 640.34375 391.023438 640.398438 391.042969 640.457031 391.160156 C 640.476562 391.007812 640.613281 390.894531 640.539062 390.742188 L 640.382812 390.910156 C 640.425781 390.414062 640.808594 390.226562 640.507812 389.804688 L 640.296875 389.957031 C 640.339844 389.652344 640.363281 389.402344 640.78125 389.390625 L 640.855469 389.734375 C 640.953125 389.257812 640.996094 388.953125 640.867188 388.492188 L 640.847656 388.644531 C 640.808594 388.570312 640.792969 388.433594 640.734375 388.320312 C 640.71875 388.1875 640.683594 388.015625 640.683594 387.824219 C 640.652344 387.460938 640.636719 387.042969 640.582031 386.640625 C 640.570312 386.21875 640.515625 385.820312 640.480469 385.457031 C 640.410156 385.113281 640.316406 384.824219 640.242188 384.671875 L 639.898438 384.839844 L 639.675781 384.378906 C 639.65625 384.4375 640.492188 384.691406 640.566406 384.75 C 640.589844 384.503906 640.632812 384.105469 640.675781 383.511719 C 640.71875 383.207031 640.71875 382.921875 640.761719 382.617188 C 640.785156 382.273438 640.808594 381.929688 640.832031 381.589844 C 640.875 380.902344 640.921875 380.214844 640.984375 379.664062 C 641.050781 379.109375 641.074219 378.671875 641.152344 378.445312 C 641.328125 378.121094 641.667969 378.429688 641.707031 378.414062 C 641.597656 377.992188 641.382812 378.238281 641.445312 377.875 C 641.503906 377.800781 641.691406 377.898438 641.730469 377.972656 C 641.695312 377.800781 641.828125 377.6875 641.675781 377.667969 C 641.539062 377.875 641.140625 377.738281 640.890625 377.8125 L 640.953125 377.355469 L 641.203125 377.378906 C 641.203125 377.28125 640.539062 377.082031 640.714844 376.664062 C 640.835938 375.941406 640.789062 375.160156 640.855469 374.417969 C 641.007812 374.4375 641.082031 374.589844 641.15625 374.746094 C 641.15625 374.648438 641.140625 374.515625 641.234375 374.421875 C 640.984375 374.589844 641.085938 374.113281 640.953125 374.226562 C 640.667969 373.9375 640.632812 373.671875 640.617188 373.347656 C 640.621094 373.058594 640.664062 372.753906 640.457031 372.523438 C 640.171875 372.519531 637.828125 372.285156 635.464844 372.105469 C 633.101562 371.925781 630.757812 371.785156 630.414062 371.761719 C 630.433594 371.609375 630.433594 371.515625 630.511719 371.476562 C 630.339844 371.511719 630.277344 371.78125 630.375 371.875 L 630.714844 371.898438 C 630.867188 372.207031 630.507812 371.953125 630.523438 372.277344 C 630.253906 372.3125 630.160156 372.027344 630.144531 371.796875 C 630.105469 372.007812 629.929688 372.234375 630.214844 372.332031 C 630.078125 372.539062 629.871094 372.308594 629.753906 372.554688 C 629.828125 372.710938 630.132812 372.941406 629.957031 373.167969 L 629.902344 373.148438 C 629.609375 373.621094 630.351562 373.878906 630.039062 374.3125 L 629.964844 374.257812 C 629.792969 374.386719 630 374.714844 629.84375 374.980469 C 629.902344 374.902344 630.109375 374.847656 630.148438 375.019531 C 629.972656 375.34375 630.121094 375.554688 629.910156 375.800781 L 630.175781 376.050781 C 630.152344 376.109375 630.152344 376.203125 630.152344 376.300781 C 630.152344 376.394531 630.148438 376.488281 630.109375 376.605469 C 630.089844 376.851562 630.105469 377.082031 630.082031 377.421875 C 630.074219 377.996094 630.085938 378.703125 630.058594 379.425781 C 630.035156 379.769531 630.03125 380.152344 630.046875 380.476562 C 630.023438 380.816406 630.039062 381.140625 630 381.445312 C 629.953125 382.039062 629.910156 382.535156 629.90625 382.820312 L 629.886719 382.78125 C 629.847656 382.992188 629.863281 383.21875 629.824219 383.523438 C 629.800781 383.773438 629.757812 384.078125 629.71875 384.382812 C 629.675781 384.6875 629.632812 384.992188 629.59375 385.296875 C 629.550781 385.601562 629.527344 385.941406 629.449219 386.265625 C 629.34375 386.933594 629.242188 387.597656 629.160156 388.207031 C 629.140625 388.359375 629.117188 388.511719 629.097656 388.664062 C 629.078125 388.816406 629.054688 388.96875 629.015625 389.085938 C 628.957031 389.351562 628.953125 389.636719 628.949219 389.828125 C 628.625 390.035156 628.582031 390.433594 628.425781 390.699219 C 628.5625 390.585938 628.75 390.683594 628.710938 390.796875 C 628.414062 391.652344 628.863281 390.914062 628.71875 391.789062 C 628.695312 392.039062 628.597656 392.511719 628.457031 393.007812 C 628.398438 393.273438 628.28125 393.519531 628.179688 393.804688 C 628.082031 394.089844 627.984375 394.375 627.847656 394.679688 C 627.75 394.964844 627.613281 395.269531 627.496094 395.515625 C 627.378906 395.761719 627.222656 396.027344 627.105469 396.273438 C 626.851562 396.726562 626.65625 397.105469 626.519531 397.316406 C 626.554688 397.488281 626.574219 397.621094 626.554688 397.773438 C 626.53125 397.925781 626.492188 398.039062 626.414062 398.171875 C 626.296875 398.417969 626.179688 398.664062 626.214844 398.933594 L 626.140625 398.875 C 626.121094 399.027344 626.003906 399.273438 625.867188 399.578125 C 625.804688 399.75 625.707031 399.9375 625.609375 400.128906 C 625.515625 400.316406 625.417969 400.507812 625.320312 400.695312 C 625.125 401.078125 624.890625 401.472656 624.714844 401.796875 C 624.65625 401.96875 624.539062 402.117188 624.5 402.234375 C 624.421875 402.367188 624.382812 402.480469 624.363281 402.535156 L 624.441406 402.5 C 624.433594 403.070312 624.074219 402.820312 623.746094 403.121094 C 624.164062 403.296875 624.175781 403.8125 624.15625 403.964844 L 624.082031 403.90625 C 624.019531 404.171875 624.089844 404.898438 623.949219 405.296875 L 623.742188 405.160156 C 623.777344 405.429688 623.660156 405.675781 623.503906 405.941406 C 623.410156 405.941406 623.332031 405.976562 623.257812 406.015625 C 623.085938 406.050781 622.929688 406.125 622.777344 406.199219 L 622.324219 405.945312 L 621.828125 405.710938 L 621.734375 405.804688 C 621.734375 405.804688 621.765625 406.359375 621.871094 407.164062 C 621.90625 407.429688 621.941406 407.695312 621.992188 408.003906 C 621.953125 408.117188 621.933594 408.175781 621.894531 408.289062 L 621.015625 408.335938 L 621.015625 408.429688 C 621.015625 408.429688 621.414062 408.757812 622.09375 409.28125 C 622.09375 409.28125 622.152344 409.300781 622.152344 409.300781 C 622.203125 409.609375 622.257812 409.914062 622.332031 410.257812 C 622.566406 411.421875 622.859375 412.609375 623.207031 413.625 C 623.558594 414.640625 623.914062 415.464844 624.269531 415.8125 L 624.304688 416.078125 C 624.382812 416.039062 624.421875 416.023438 624.5 415.984375 C 624.765625 416.046875 624.863281 415.761719 624.878906 415.988281 L 624.515625 416.023438 C 624.804688 416.027344 624.648438 416.195312 624.589844 416.367188 C 624.683594 416.367188 624.820312 416.351562 624.914062 416.449219 C 624.953125 416.332031 624.855469 416.332031 624.800781 416.3125 C 624.933594 416.199219 625.089844 415.933594 625.261719 415.992188 C 625.527344 415.957031 625.351562 416.375 625.675781 416.359375 C 626.515625 416.332031 627.296875 416.378906 628.136719 416.445312 C 628.9375 416.53125 629.773438 416.597656 630.652344 416.644531 C 630.707031 416.761719 630.652344 416.742188 630.574219 416.777344 C 631.109375 416.707031 631.546875 416.828125 632.042969 416.777344 C 632.15625 416.910156 632.171875 417.042969 632.191406 417.179688 C 632.171875 417.042969 632.820312 417.109375 633.527344 417.191406 C 633.679688 417.214844 633.886719 417.253906 634.039062 417.273438 C 634.191406 417.296875 634.363281 417.355469 634.515625 417.375 C 634.78125 417.4375 634.953125 417.496094 634.953125 417.496094 L 635.070312 417.058594 C 635.605469 417.179688 635.105469 417.609375 635.617188 417.597656 C 635.8125 417.3125 635.984375 417.375 636.191406 417.507812 C 636.382812 417.605469 636.550781 417.761719 636.726562 417.628906 C 636.707031 417.6875 636.933594 417.765625 636.875 417.9375 C 637.050781 417.613281 637.160156 417.9375 637.332031 417.902344 C 637.429688 417.808594 637.332031 417.808594 637.316406 417.675781 L 637.695312 417.679688 C 637.808594 417.8125 637.769531 418.023438 637.617188 418 C 638.09375 418.199219 639.402344 418.746094 640.808594 419.296875 C 642.175781 419.863281 643.636719 420.433594 644.167969 420.554688 C 644.113281 420.25 643.714844 420.300781 643.738281 419.863281 C 644.101562 419.734375 644.136719 420.097656 644.328125 419.910156 C 644.207031 420.535156 644.898438 420.296875 644.890625 420.964844 L 645.175781 420.777344 L 645.25 421.023438 C 646.640625 421.15625 645.59375 420.953125 646.695312 421.460938 C 647.359375 421.660156 647.820312 421.339844 648.160156 421.648438 C 648.125 421.574219 648.070312 421.363281 648.261719 421.363281 C 648.160156 421.648438 648.777344 421.351562 648.773438 421.636719 C 648.980469 421.675781 649.476562 421.910156 649.441406 421.453125 C 649.457031 421.683594 649.914062 421.9375 649.570312 422.007812 C 649.742188 422.066406 649.851562 422.203125 650.027344 422.164062 L 649.835938 421.972656 C 650.425781 422.113281 650.59375 422.554688 651.109375 422.351562 L 650.960938 422.136719 C 651.300781 422.257812 651.605469 422.296875 651.582031 422.738281 L 651.203125 422.730469 C 651.773438 422.929688 652.113281 423.046875 652.667969 423.015625 L 652.496094 422.957031 C 652.878906 422.867188 653.867188 423.046875 654.898438 423.210938 C 655.925781 423.375 656.933594 423.503906 657.28125 423.335938 L 657.132812 422.933594 L 657.703125 422.84375 C 657.648438 422.824219 657.21875 423.601562 657.140625 423.636719 C 657.695312 423.796875 659.347656 424.273438 661.023438 424.691406 C 661.878906 424.894531 662.734375 425.09375 663.4375 425.273438 C 663.800781 425.335938 664.121094 425.414062 664.390625 425.476562 C 664.65625 425.535156 664.863281 425.574219 664.996094 425.652344 C 665.394531 425.886719 664.972656 426.1875 664.972656 426.1875 C 665.527344 426.15625 665.261719 425.902344 665.699219 426.023438 C 665.832031 426.101562 665.621094 426.25 665.542969 426.289062 C 665.734375 426.292969 665.902344 426.445312 665.964844 426.273438 C 665.734375 426.101562 665.894531 425.738281 665.859375 425.472656 C 666.066406 425.511719 666.238281 425.570312 666.449219 425.613281 L 666.367188 425.839844 C 666.480469 425.878906 666.777344 425.214844 667.347656 425.414062 C 668.277344 425.671875 669.363281 425.664062 670.316406 425.769531 C 670.296875 425.921875 670.085938 425.976562 669.855469 426.089844 C 670.007812 426.109375 670.179688 426.074219 670.332031 426.191406 C 670.105469 425.921875 670.773438 426.023438 670.582031 425.925781 C 670.96875 425.644531 671.386719 425.628906 671.789062 425.671875 C 672.167969 425.675781 672.570312 425.71875 672.894531 425.511719 C 672.898438 425.226562 673.230469 422.886719 673.410156 420.523438 C 673.589844 418.160156 673.671875 415.792969 673.65625 415.46875 C 673.789062 415.453125 673.941406 415.472656 673.980469 415.550781 C 673.945312 415.378906 673.640625 415.335938 673.542969 415.429688 L 673.519531 415.773438 C 673.214844 415.921875 673.425781 415.582031 673.101562 415.597656 C 673.085938 415.464844 673.144531 415.386719 673.257812 415.332031 C 673.371094 415.277344 673.507812 415.257812 673.621094 415.203125 C 673.527344 415.203125 673.394531 415.125 673.296875 415.121094 C 673.203125 415.121094 673.109375 415.121094 673.085938 415.273438 C 672.839844 415.15625 673.109375 414.929688 672.824219 414.832031 C 672.632812 414.925781 672.382812 415.1875 672.171875 415.054688 L 672.195312 414.996094 C 671.929688 414.839844 671.738281 414.933594 671.507812 415.046875 C 671.316406 415.136719 671.121094 415.230469 670.859375 415.074219 L 670.914062 415 C 670.746094 414.847656 670.398438 415.015625 670.117188 414.820312 C 670.191406 414.878906 670.246094 415.089844 670.074219 415.125 C 669.734375 414.910156 669.464844 415.042969 669.21875 414.828125 L 668.910156 415.074219 C 668.816406 415.070312 668.757812 415.050781 668.605469 415.03125 C 668.511719 415.03125 668.359375 415.011719 668.246094 414.96875 C 667.996094 414.949219 667.636719 414.886719 667.332031 414.847656 C 666.625 414.761719 665.808594 414.636719 664.96875 414.476562 C 663.296875 414.152344 661.566406 413.710938 660.859375 413.53125 L 660.9375 413.496094 C 659.855469 413.214844 658.21875 412.683594 656.507812 412.089844 C 654.816406 411.539062 653.089844 410.910156 651.832031 410.664062 C 651.589844 410.261719 651.058594 410.140625 650.714844 409.929688 C 650.90625 410.121094 650.730469 410.253906 650.5625 410.195312 C 649.421875 409.703125 650.40625 410.363281 649.191406 410.007812 C 648.464844 409.882812 646.8125 409.21875 645.164062 408.550781 C 645.105469 408.53125 645.046875 408.511719 645.03125 408.472656 C 645.183594 408.398438 645.335938 408.324219 645.488281 408.25 C 646.085938 407.910156 646.640625 407.59375 647.179688 407.238281 C 647.429688 407.070312 647.738281 406.917969 647.988281 406.75 C 648.234375 406.582031 648.523438 406.394531 648.792969 406.265625 C 649.351562 405.945312 649.964844 405.648438 650.652344 405.3125 C 650.558594 405.40625 650.5 405.480469 650.402344 405.574219 C 650.921875 405.371094 651.628906 404.980469 652.398438 404.511719 C 652.800781 404.269531 653.207031 404.023438 653.648438 403.761719 C 654.089844 403.5 654.511719 403.296875 654.96875 403.070312 C 654.472656 403.3125 653.9375 403.382812 654.917969 402.765625 C 655.914062 402.28125 656.742188 401.738281 657.46875 401.289062 C 658.199219 400.839844 658.890625 400.40625 659.621094 400.054688 C 659.8125 399.863281 660.007812 399.675781 660.199219 399.488281 L 660.777344 398.921875 C 662.429688 397.835938 665.160156 395.84375 668.355469 393.246094 C 671.550781 390.652344 675.136719 387.390625 678.53125 383.9375 C 681.929688 380.488281 685.058594 376.785156 687.613281 373.550781 C 690.148438 370.28125 692.050781 367.457031 693.15625 365.832031 L 693.019531 366.132812 C 694.6875 363.617188 696.6875 360.414062 698.65625 356.757812 C 700.660156 353.078125 702.65625 348.886719 704.285156 344.535156 C 705.132812 342.371094 705.84375 340.128906 706.476562 337.921875 C 707.113281 335.71875 707.652344 333.511719 708.039062 331.378906 C 708.464844 329.230469 708.753906 327.191406 708.949219 325.25 C 709.140625 323.304688 709.21875 321.511719 709.238281 319.890625 C 709.257812 319.644531 709.320312 319.378906 709.339844 319.128906 C 709.363281 318.882812 709.402344 318.578125 709.40625 318.292969 C 709.410156 318.003906 709.453125 317.699219 709.457031 317.414062 C 709.476562 317.261719 709.457031 317.128906 709.480469 316.976562 C 709.5 316.824219 709.484375 316.691406 709.484375 316.5 C 709.472656 315.890625 709.460938 315.277344 709.46875 314.707031 C 709.417969 314.113281 709.421875 313.542969 709.410156 313.027344 C 709.402344 313.597656 709.324219 313.828125 709.285156 313.75 C 709.210938 313.691406 709.140625 313.347656 709.125 312.929688 C 709.070312 312.527344 709.054688 312.203125 709.039062 311.878906 C 708.988281 311.574219 708.953125 311.304688 708.933594 311.078125 C 708.902344 310.617188 708.847656 310.3125 708.792969 310.101562 C 708.722656 309.664062 708.703125 309.625 708.628906 309.566406 C 708.589844 309.488281 708.535156 309.46875 708.460938 309.03125 C 708.40625 308.820312 708.355469 308.515625 708.265625 308.035156 C 708.210938 307.824219 708.175781 307.558594 708.101562 307.214844 C 708.046875 306.910156 707.9375 306.582031 707.882812 306.179688 C 707.757812 305.722656 707.648438 305.207031 707.5 304.613281 C 707.355469 304.019531 707.171875 303.351562 706.96875 302.644531 C 706.878906 302.261719 706.75 301.894531 706.621094 301.53125 C 706.492188 301.167969 706.382812 300.746094 706.234375 300.34375 C 706.125 299.925781 705.976562 299.523438 705.808594 299.082031 C 705.660156 298.679688 705.492188 298.238281 705.367188 297.78125 C 704.050781 294.199219 702.226562 290.25 700.09375 286.542969 Z M 697.636719 321.878906 C 697.65625 321.917969 697.617188 321.933594 697.636719 321.972656 C 697.617188 321.933594 697.65625 321.917969 697.636719 321.878906 Z M 630.160156 372.027344 C 630.179688 371.96875 630.164062 371.929688 630.125 371.855469 C 630.144531 371.894531 630.179688 371.96875 630.160156 372.027344 Z M 640.488281 384.882812 C 640.527344 384.867188 640.527344 384.867188 640.488281 384.882812 Z M 640.230469 392.453125 Z M 624.019531 416.265625 C 624.226562 416.496094 624.398438 416.460938 624.644531 416.484375 C 624.417969 416.214844 624.210938 416.171875 624.019531 416.265625 Z M 624.625 416.445312 Z M 673.546875 415.238281 C 673.601562 415.257812 673.640625 415.242188 673.71875 415.203125 C 673.679688 415.222656 673.582031 415.222656 673.546875 415.238281 Z M 657.066406 423.675781 C 657.066406 423.675781 657.046875 423.636719 657.066406 423.675781 Z M 648.125 421.667969 Z M 648.125 421.667969 " fill-opacity="1" fill-rule="nonzero"/></g></g></g></svg>